<?xml version="1.0" encoding="utf-8"?>
<!-- Generator: Adobe Illustrator 16.0.0, SVG Export Plug-In . SVG Version: 6.00 Build 0)  -->
<!DOCTYPE svg PUBLIC "-//W3C//DTD SVG 1.1//EN" "http://www.w3.org/Graphics/SVG/1.1/DTD/svg11.dtd">
<svg version="1.1" id="Layer_1" xmlns="http://www.w3.org/2000/svg" xmlns:xlink="http://www.w3.org/1999/xlink" x="0px" y="0px"
	 width="220px" height="113.348px" viewBox="0 0 220 113.348" enable-background="new 0 0 220 113.348" xml:space="preserve">
<g>
	<g>
		<rect y="88.687" width="220" height="1.489"/>
	</g>
	<g>
		<g>
			<path d="M16.823,103.549c-1.166,0-2.084,0.389-2.759,1.165c-0.675,0.775-1.012,1.839-1.012,3.188c0,1.388,0.324,2.46,0.975,3.216
				c0.651,0.758,1.578,1.134,2.782,1.134c0.74,0,1.583-0.131,2.531-0.396v1.08c-0.735,0.275-1.642,0.412-2.721,0.412
				c-1.562,0-2.766-0.472-3.615-1.421c-0.849-0.946-1.272-2.293-1.272-4.039c0-1.093,0.204-2.052,0.613-2.873
				c0.408-0.82,0.998-1.454,1.769-1.898c0.772-0.445,1.68-0.669,2.725-0.669c1.112,0,2.083,0.203,2.915,0.609l-0.521,1.06
				C18.428,103.74,17.625,103.549,16.823,103.549z"/>
		</g>
		<g>
			<path d="M35.313,107.888c0,1.698-0.429,3.033-1.287,4.003c-0.858,0.971-2.052,1.457-3.58,1.457c-1.562,0-2.766-0.475-3.615-1.43
				c-0.849-0.958-1.273-2.305-1.273-4.046c0-1.726,0.425-3.063,1.277-4.013c0.85-0.949,2.059-1.427,3.626-1.427
				c1.523,0,2.712,0.486,3.568,1.451C34.885,104.851,35.313,106.186,35.313,107.888z M26.864,107.888
				c0,1.436,0.306,2.525,0.917,3.266c0.612,0.744,1.5,1.114,2.665,1.114c1.176,0,2.062-0.37,2.662-1.108
				c0.599-0.74,0.899-1.83,0.899-3.271c0-1.425-0.298-2.509-0.896-3.246c-0.597-0.737-1.481-1.104-2.65-1.104
				c-1.176,0-2.068,0.37-2.68,1.113C27.17,105.392,26.864,106.472,26.864,107.888z"/>
		</g>
		<g>
			<path d="M46.826,113.205l-3.597-9.399h-0.058c0.068,0.743,0.102,1.627,0.102,2.654v6.745h-1.139V102.6h1.856l3.358,8.748h0.058
				l3.386-8.748h1.842v10.605h-1.232v-6.835c0-0.782,0.034-1.633,0.101-2.55h-0.058l-3.627,9.385H46.826z"/>
		</g>
		<g>
			<path d="M64.694,113.205l-3.598-9.399h-0.059c0.068,0.743,0.102,1.627,0.102,2.654v6.745h-1.138V102.6h1.856l3.357,8.748h0.059
				l3.386-8.748h1.842v10.605H69.27v-6.835c0-0.782,0.034-1.633,0.101-2.55h-0.057l-3.627,9.385H64.694z"/>
		</g>
		<g>
			<path d="M85.875,102.6v6.861c0,1.209-0.366,2.161-1.095,2.852c-0.73,0.689-1.734,1.035-3.01,1.035s-2.265-0.346-2.963-1.042
				c-0.698-0.698-1.047-1.653-1.047-2.872V102.6h1.232v6.921c0,0.884,0.242,1.564,0.726,2.036c0.484,0.475,1.195,0.711,2.133,0.711
				c0.894,0,1.583-0.236,2.067-0.714c0.483-0.475,0.726-1.158,0.726-2.048V102.6H85.875z"/>
		</g>
		<g>
			<path d="M101.42,113.205h-1.407l-5.794-8.9H94.16c0.077,1.045,0.116,2.003,0.116,2.872v6.028h-1.138V102.6h1.392l5.782,8.864
				h0.058c-0.011-0.131-0.032-0.549-0.066-1.26c-0.034-0.708-0.045-1.215-0.036-1.517V102.6h1.152V113.205z"/>
		</g>
		<g>
			<path d="M108.793,113.205V102.6h1.231v10.605H108.793z"/>
		</g>
		<g>
			<path d="M121.931,103.549c-1.167,0-2.087,0.389-2.762,1.165c-0.672,0.775-1.012,1.839-1.012,3.188
				c0,1.388,0.326,2.46,0.976,3.216c0.652,0.758,1.578,1.134,2.783,1.134c0.74,0,1.582-0.131,2.53-0.396v1.08
				c-0.734,0.275-1.641,0.412-2.72,0.412c-1.562,0-2.767-0.472-3.614-1.421c-0.85-0.946-1.273-2.293-1.273-4.039
				c0-1.093,0.204-2.052,0.613-2.873c0.406-0.82,0.997-1.454,1.771-1.898c0.771-0.445,1.678-0.669,2.722-0.669
				c1.112,0,2.082,0.203,2.915,0.609l-0.522,1.06C123.534,103.74,122.732,103.549,121.931,103.549z"/>
		</g>
		<g>
			<path d="M137.88,113.205l-1.319-3.371h-4.248l-1.307,3.371h-1.247l4.192-10.647h1.037l4.17,10.647H137.88z M136.179,108.721
				l-1.233-3.285c-0.161-0.415-0.325-0.925-0.494-1.528c-0.105,0.463-0.258,0.974-0.455,1.528l-1.251,3.285H136.179z"/>
		</g>
		<g>
			<path d="M148.336,113.205h-1.232v-9.51h-3.359V102.6h7.951v1.096h-3.359V113.205z"/>
		</g>
		<g>
			<path d="M157.747,113.205V102.6h1.231v10.605H157.747z"/>
		</g>
		<g>
			<path d="M175.548,107.888c0,1.698-0.43,3.033-1.287,4.003c-0.859,0.971-2.053,1.457-3.58,1.457c-1.562,0-2.768-0.475-3.615-1.43
				c-0.85-0.958-1.273-2.305-1.273-4.046c0-1.726,0.426-3.063,1.276-4.013s2.061-1.427,3.628-1.427c1.522,0,2.711,0.486,3.567,1.451
				C175.121,104.851,175.548,106.186,175.548,107.888z M167.099,107.888c0,1.436,0.306,2.525,0.916,3.266
				c0.612,0.744,1.502,1.114,2.666,1.114c1.177,0,2.063-0.37,2.66-1.108c0.601-0.74,0.902-1.83,0.902-3.271
				c0-1.425-0.299-2.509-0.896-3.246c-0.598-0.737-1.481-1.104-2.651-1.104c-1.177,0-2.069,0.37-2.682,1.113
				C167.404,105.392,167.099,106.472,167.099,107.888z"/>
		</g>
		<g>
			<path d="M190.65,113.205h-1.407l-5.794-8.9h-0.059c0.076,1.045,0.117,2.003,0.117,2.872v6.028h-1.138V102.6h1.39l5.782,8.864
				h0.057c-0.01-0.131-0.03-0.549-0.063-1.26c-0.034-0.708-0.046-1.215-0.037-1.517V102.6h1.152V113.205z"/>
		</g>
		<g>
			<path d="M204.007,110.383c0,0.932-0.337,1.66-1.015,2.183s-1.598,0.782-2.759,0.782c-1.254,0-2.222-0.161-2.9-0.486v-1.188
				c0.438,0.186,0.909,0.329,1.423,0.437c0.513,0.107,1.02,0.158,1.522,0.158c0.821,0,1.44-0.155,1.856-0.466
				c0.415-0.313,0.624-0.747,0.624-1.302c0-0.37-0.074-0.669-0.221-0.905c-0.149-0.232-0.394-0.45-0.74-0.647
				c-0.345-0.197-0.872-0.424-1.576-0.675c-0.987-0.353-1.693-0.771-2.114-1.254c-0.424-0.487-0.636-1.117-0.636-1.896
				c0-0.814,0.308-1.466,0.923-1.949c0.611-0.483,1.425-0.726,2.436-0.726c1.053,0,2.023,0.194,2.908,0.582l-0.384,1.072
				c-0.876-0.367-1.727-0.553-2.554-0.553c-0.651,0-1.165,0.144-1.529,0.424c-0.37,0.281-0.552,0.669-0.552,1.165
				c0,0.37,0.067,0.672,0.203,0.904c0.134,0.233,0.364,0.451,0.685,0.645c0.321,0.197,0.812,0.412,1.477,0.651
				c1.114,0.395,1.878,0.821,2.295,1.274C203.797,109.066,204.007,109.658,204.007,110.383z"/>
		</g>
	</g>
	<g>
		<g>
			<path d="M63.652,49.473c-2.712-2.49-4.066-5.613-4.066-9.352c0-4.622,1.537-8.085,4.618-10.396
				c3.082-2.311,6.746-3.812,11.005-4.511c4.25-0.696,9.753-1.228,16.5-1.595v-8.691c0-3.592-0.901-6.326-2.693-8.198
				c-1.8-1.869-4.68-2.804-8.639-2.804c-2.271,0-4.257,0.698-5.94,2.09c-1.687,1.395-2.53,3.267-2.53,5.61
				c0,1.176,0.274,2.144,0.824,2.917c0.551,0.768,1.137,1.412,1.762,1.926c0.62,0.514,0.933,0.809,0.933,0.878
				c0,0.441-0.46,1.009-1.375,1.708c-0.917,0.698-2.036,1.042-3.355,1.042c-2.2,0-3.943-0.807-5.227-2.419
				c-1.282-1.615-1.924-3.521-1.924-5.721c0-3.815,1.705-6.64,5.115-8.473c3.41-1.834,7.536-2.75,12.379-2.75
				c6.012,0,10.906,1.138,14.687,3.412c3.777,2.272,5.666,6.491,5.666,12.65v25.632c0.074,1.544,0.553,3.01,1.43,4.401
				c0.881,1.395,2.309,2.096,4.291,2.096c0.589,0,1.012,0.107,1.265,0.325c0.259,0.222,0.387,0.699,0.387,1.431
				c0,0.881-0.68,1.52-2.036,1.926c-1.358,0.403-2.697,0.603-4.016,0.603c-2.79,0-5.246-0.803-7.373-2.418
				c-2.129-1.609-3.337-3.773-3.631-6.491c-1.538,2.857-3.905,5.062-7.096,6.602c-3.191,1.541-6.618,2.308-10.285,2.308
				C69.926,53.21,66.367,51.966,63.652,49.473z M84.778,45.399c2.125-1.241,3.813-2.952,5.06-5.114
				c1.247-2.164,1.87-4.562,1.87-7.204v-6.273c-7.7,0.592-13.13,1.834-16.284,3.744c-3.153,1.908-4.73,4.983-4.73,9.241
				c0,4.986,2.383,7.479,7.15,7.479C80.338,47.271,82.649,46.654,84.778,45.399z"/>
		</g>
		<g>
			<path d="M184.585,49.693c-3.854-2.347-6.769-5.535-8.748-9.572c-1.98-4.033-2.969-8.509-2.969-13.424
				c0-4.326,1.008-8.488,3.022-12.482c2.021-3.998,4.896-7.247,8.635-9.739c3.744-2.493,8.038-3.741,12.878-3.741
				c6.524,0,11.55,1.669,15.071,5.004c3.518,3.341,5.537,7.831,6.052,13.478c0,2.421-0.663,4.075-1.979,4.953
				c-1.322,0.878-3.23,1.319-5.724,1.319H184.09c0,6.822,1.41,12.229,4.235,16.228c2.822,4.001,7.206,5.998,13.147,5.998
				c3.154,0,5.831-0.678,8.028-2.039c2.203-1.353,4.293-3.646,6.275-6.873c0.361-0.37,0.731-0.55,1.099-0.55
				c0.513,0,0.953,0.149,1.32,0.439c0.731,0.438,1.099,1.102,1.099,1.979c0,0.441-0.071,0.773-0.221,0.991
				c-2.272,3.669-5.15,6.509-8.635,8.526c-3.484,2.013-7.426,3.021-11.829,3.021C193.109,53.21,188.434,52.04,184.585,49.693z
				 M202.019,21.312c3.747,0,5.724-1.544,5.944-4.625c0-3.374-0.918-6.234-2.749-8.581c-1.835-2.35-4.44-3.52-7.811-3.52
				c-3.743,0-6.826,1.483-9.241,4.454c-2.423,2.968-3.78,7.062-4.072,12.271H202.019z"/>
		</g>
		<g>
			<g>
				<path d="M53.408,0H25.109l0.052,0.023c-0.095-0.003-0.179-0.012-0.273-0.012c-0.023,0-0.045-0.003-0.072-0.003h0.001
					c-0.037,0-0.071,0-0.109,0c-4.154,0-7.861,0.74-11.124,2.221c-3.263,1.484-5.802,3.523-7.617,6.118
					c-1.817,2.598-2.726,5.487-2.726,8.673c0,1.191,0.125,2.338,0.373,3.44c0.419,1.817,1.177,3.52,2.276,5.103
					c1.78,2.556,4.855,4.69,9.232,6.395c-0.054,0-0.104,0.003-0.157,0.003c-3.706,0.027-6.566,1.007-8.575,2.944
					c-2.041,1.965-3.058,4.392-3.058,7.285c0,2.818,0.796,4.891,2.392,6.225c1.594,1.335,3.836,2.264,6.729,2.78
					c2.224,0.373,5.966,0.63,11.23,0.779c4.3,0.074,7.787,0.28,10.456,0.612c2.67,0.334,4.893,1.092,6.672,2.277
					c1.779,1.188,2.67,2.965,2.67,5.339c0,3.854-1.521,6.766-4.562,8.729c-3.04,1.965-7.378,2.947-13.012,2.947
					c-1.365,0-2.638-0.054-3.812-0.164c-7.246-0.687-10.864-3.487-10.867-8.398c0-1.261,0.243-2.356,0.724-3.278
					c0.481-0.929,1.037-1.708,1.668-2.338c0.629-0.63,0.947-0.982,0.947-1.055c0-0.295-0.281-0.722-0.835-1.277
					c-0.556-0.559-1.278-1.042-2.168-1.448c-0.89-0.409-1.854-0.612-2.892-0.612c-2.522,0-4.581,0.929-6.171,2.783
					c-1.597,1.848-2.392,4.036-2.392,6.56c0,8.635,7.37,13.083,22.111,13.331c0.446,0.009,0.896,0.012,1.355,0.012
					c9.043,0,16.272-1.648,21.687-4.947c5.412-3.299,8.117-7.841,8.117-13.621c0-4.448-1.724-7.769-5.171-9.954
					c-3.447-2.186-9.063-3.428-16.847-3.726L16.124,43.19c-2.374-0.146-4.041-0.559-5.004-1.224
					c-0.966-0.669-1.444-1.705-1.444-3.114c0-1.705,0.871-2.93,2.612-3.67c1.712-0.729,4.457-1.099,8.212-1.11
					c0.065,0,0.123-0.003,0.185-0.003h4.894c3.484,0,6.819-0.702,10.008-2.111c3.187-1.409,5.765-3.431,7.73-6.061
					c1.962-2.634,2.947-5.655,2.947-9.064c0-1.854-0.445-3.818-1.333-5.896c-0.353-0.815-0.741-1.553-1.147-2.242
					c-0.077-0.117-0.143-0.233-0.223-0.347c-0.004-0.003-0.007-0.009-0.01-0.012c-0.918-1.308-2.023-2.476-3.309-3.5h13.167V0z
					 M33.104,27.199c-0.041,0.045-0.087,0.087-0.126,0.131c-2.099,2.392-4.854,3.592-8.27,3.592c-3.41,0-6.194-1.257-8.341-3.779
					c-1.347-1.576-2.273-3.532-2.775-5.864c-0.313-1.418-0.472-2.974-0.472-4.669c0-4.076,1.074-7.304,3.227-9.674
					c2.146-2.374,4.893-3.56,8.229-3.56c3.41,0,6.21,1.222,8.396,3.67c1.372,1.534,2.313,3.395,2.825,5.571
					c0.317,1.316,0.477,2.747,0.477,4.293C36.275,21.287,35.216,24.715,33.104,27.199z"/>
			</g>
		</g>
		<g>
			<g>
				<path d="M168.479,0h-28.299l0.051,0.023c-0.094-0.003-0.178-0.012-0.273-0.012c-0.021,0-0.045-0.003-0.07-0.003h0.002
					c-0.036,0-0.071,0-0.11,0c-4.153,0-7.861,0.74-11.122,2.221c-3.265,1.484-5.804,3.523-7.619,6.118
					c-1.815,2.598-2.726,5.487-2.726,8.673c0,1.191,0.125,2.338,0.374,3.44c0.42,1.817,1.177,3.52,2.277,5.103
					c1.779,2.556,4.854,4.69,9.231,6.395c-0.054,0-0.104,0.003-0.157,0.003c-3.705,0.027-6.566,1.007-8.576,2.944
					c-2.039,1.965-3.058,4.392-3.058,7.285c0,2.818,0.798,4.891,2.392,6.225c1.595,1.335,3.837,2.264,6.73,2.78
					c2.224,0.373,5.967,0.63,11.231,0.779c4.3,0.074,7.785,0.28,10.455,0.612c2.67,0.334,4.892,1.092,6.671,2.277
					c1.779,1.188,2.671,2.965,2.671,5.339c0,3.854-1.521,6.766-4.562,8.729c-3.039,1.965-7.377,2.947-13.013,2.947
					c-1.364,0-2.637-0.054-3.812-0.164c-7.244-0.687-10.864-3.487-10.867-8.398c0-1.261,0.243-2.356,0.724-3.278
					c0.48-0.929,1.039-1.708,1.669-2.338c0.629-0.63,0.946-0.982,0.946-1.055c0-0.295-0.28-0.722-0.836-1.277
					c-0.556-0.559-1.277-1.042-2.168-1.448c-0.89-0.409-1.854-0.612-2.893-0.612c-2.52,0-4.58,0.929-6.172,2.783
					c-1.596,1.848-2.392,4.036-2.392,6.56c0,8.635,7.372,13.083,22.112,13.331c0.445,0.009,0.896,0.012,1.355,0.012
					c9.044,0,16.272-1.648,21.687-4.947c5.413-3.299,8.117-7.841,8.117-13.621c0-4.448-1.724-7.769-5.172-9.954
					c-3.445-2.186-9.062-3.428-16.848-3.726l-15.236-0.556c-2.374-0.146-4.043-0.559-5.004-1.224
					c-0.966-0.669-1.445-1.705-1.445-3.114c0-1.705,0.87-2.93,2.612-3.67c1.711-0.729,4.456-1.099,8.213-1.11
					c0.063,0,0.12-0.003,0.184-0.003h4.895c3.483,0,6.818-0.702,10.007-2.111c3.187-1.409,5.766-3.431,7.729-6.063
					c1.965-2.631,2.948-5.652,2.948-9.062c0-1.854-0.446-3.818-1.333-5.896c-0.353-0.815-0.74-1.553-1.147-2.242
					c-0.076-0.117-0.144-0.233-0.223-0.347c-0.005-0.003-0.008-0.009-0.011-0.012c-0.918-1.308-2.022-2.476-3.31-3.5h13.169V0z
					 M148.175,27.199c-0.04,0.045-0.087,0.087-0.125,0.131c-2.1,2.392-4.854,3.592-8.271,3.592c-3.41,0-6.194-1.257-8.341-3.779
					c-1.347-1.576-2.273-3.532-2.775-5.864c-0.313-1.418-0.472-2.974-0.472-4.669c0-4.076,1.075-7.304,3.228-9.674
					c2.147-2.374,4.893-3.56,8.229-3.56c3.41,0,6.211,1.222,8.396,3.67c1.371,1.534,2.313,3.395,2.825,5.571
					c0.316,1.316,0.477,2.747,0.477,4.293C151.346,21.287,150.286,24.715,148.175,27.199z"/>
			</g>
		</g>
	</g>
</g>
</svg>
