<?xml version="1.0" standalone="no"?>
<!DOCTYPE svg PUBLIC "-//W3C//DTD SVG 20010904//EN"
 "http://www.w3.org/TR/2001/REC-SVG-20010904/DTD/svg10.dtd">
<svg version="1.0" xmlns="http://www.w3.org/2000/svg"
 width="200.000000pt" height="200.000000pt" viewBox="0 0 200.000000 200.000000"
 preserveAspectRatio="xMidYMid meet">

<g transform="translate(0.000000,200.000000) scale(0.100000,-0.100000)"
fill="#CF2035" stroke="none">
<path d="M872 1990 c-409 -58 -733 -346 -839 -749 -22 -82 -26 -118 -26 -241
0 -123 4 -159 26 -241 96 -365 361 -630 726 -726 82 -22 118 -26 241 -26 123
0 159 4 241 26 365 96 630 361 726 726 22 82 26 118 26 241 0 123 -4 159 -26
241 -96 364 -366 634 -724 725 -107 27 -273 38 -371 24z m305 -104 c185 -39
319 -113 458 -251 182 -182 265 -381 265 -635 0 -258 -94 -478 -278 -651 -106
-101 -198 -158 -322 -201 -188 -65 -412 -65 -600 0 -253 88 -464 299 -552 552
-65 188 -65 412 0 600 101 291 359 517 667 585 82 18 278 18 362 1z"/>
<path d="M912 1480 l-74 -70 162 0 162 0 -74 70 c-40 38 -80 69 -88 69 -8 0
-48 -31 -88 -69z"/>
<path d="M690 1263 c-1 -5 -1 -154 0 -333 0 -179 0 -331 0 -337 0 -9 22 -13
75 -13 l75 0 0 185 c0 102 3 185 8 185 4 -1 108 -88 232 -194 124 -107 227
-192 228 -191 3 3 4 543 2 678 0 4 -34 7 -75 7 l-75 0 -2 -177 -3 -176 -227
186 c-125 103 -230 187 -233 187 -3 0 -5 -3 -5 -7z"/>
</g>
</svg>
