<svg enable-background="new 0 0 792 612" height="612" viewBox="0 0 792 612" width="792" xmlns="http://www.w3.org/2000/svg"><g fill="#f37029"><path d="m396.057 147.532c-48.702 0-88.179 39.479-88.179 88.179 0 40.679 27.551 74.9 65.007 85.081v-132.977h15.899v17.688c4.743-6.964 9.752-12.182 15.02-15.632 5.259-3.45 10.769-5.179 16.473-5.179 4.302 0 8.894 1.382 13.8 4.122l-8.131 13.132c-3.263-1.408-6.009-2.119-8.229-2.119-5.199 0-10.201 2.138-15.023 6.406-4.82 4.265-8.494 10.885-11.017 19.855-1.935 6.896-2.892 20.84-2.892 41.837v55.646c2.404.195 4.824.323 7.273.323 48.698 0 88.179-39.483 88.179-88.182-.001-48.7-39.482-88.18-88.18-88.18z"/><path d="m300.961 412.823c3.041 0 5.648 1.081 7.799 3.232 2.167 2.162 3.238 4.76 3.238 7.805 0 3.07-1.072 5.676-3.238 7.838-2.151 2.159-4.758 3.236-7.799 3.236-3.044 0-5.644-1.077-7.799-3.236-2.159-2.162-3.242-4.768-3.242-7.838 0-3.045 1.083-5.643 3.242-7.805 2.155-2.151 4.755-3.232 7.799-3.232z"/><path d="m463.644 412.823c3.04 0 5.644 1.081 7.803 3.232 2.162 2.162 3.237 4.76 3.237 7.805 0 3.07-1.075 5.676-3.237 7.838-2.159 2.159-4.763 3.236-7.803 3.236-3.047 0-5.65-1.077-7.8-3.236-2.164-2.162-3.237-4.768-3.237-7.838 0-3.045 1.073-5.643 3.237-7.805 2.149-2.151 4.753-3.232 7.8-3.232z"/></g><path d="m127.897 383.35c-3.548 0-7.007 1.089-10.286 3.24-3.315 2.17-6.523 5.511-9.532 9.93l-1.203 1.764v-12.921h-8.959v76.939h8.959v-25.81c0-13.56.642-22.716 1.899-27.221 1.659-5.894 4.118-10.319 7.319-13.154 3.229-2.853 6.639-4.302 10.147-4.302 1.406 0 3.063.397 5.053 1.205l4.591-7.422c-2.838-1.494-5.524-2.248-7.988-2.248z"/><path d="m209.591 385.362 35.427 76.94h1.027l35.219-76.94h-9.347l-26.364 57.967-26.695-57.967z"/><path d="m422.363 355.161h8.749v107.141h-8.749z"/><path d="m524.718 383.35c-3.54 0-6.999 1.089-10.288 3.24-3.309 2.17-6.517 5.511-9.529 9.93l-1.203 1.764v-12.921h-8.965v76.939h8.965v-25.81c0-13.766.621-22.667 1.896-27.221 1.659-5.897 4.122-10.319 7.317-13.154 3.227-2.853 6.643-4.302 10.152-4.302 1.402 0 3.062.397 5.051 1.205l4.59-7.422c-2.837-1.494-5.521-2.248-7.986-2.248z"/><path d="m203.357 398.283c-7.805-9.91-18.386-14.934-31.452-14.934-12.678 0-22.943 4.899-30.505 14.559-5.975 7.617-9.002 16.409-9.002 26.147 0 10.335 3.582 19.731 10.639 27.938 7.037 8.176 16.946 12.324 29.449 12.324 5.652 0 10.78-.867 15.241-2.575 4.453-1.708 8.524-4.246 12.098-7.534 3.444-3.161 6.543-7.354 9.212-12.471l-7.365-3.867c-2.955 4.858-5.77 8.47-8.374 10.733-2.705 2.346-6.01 4.238-9.825 5.635-3.829 1.407-7.814 2.117-11.854 2.117-8.399 0-15.561-3.004-21.289-8.924-3.854-3.99-6.485-8.848-7.825-14.438l-.104-.478c-.158-.672-.296-1.348-.411-2.038-.069-.428-.127-.859-.182-1.303-.073-.533-.145-1.077-.197-1.645l-.081-1.313c-.038-.521-.081-1.04-.088-1.581l-.009-.668h.038c.032-2.481.317-4.959.854-7.388h-.049l.193-.841c.051-.181.111-.346.171-.511.05-.139.101-.274.145-.424.45-1.565.882-2.823 1.362-3.965 1.963-4.898 4.544-8.807 7.662-11.596 5.62-5.02 12.43-7.564 20.244-7.564 4.744 0 9.32 1.01 13.6 3.011 4.296 1.997 7.805 4.674 10.421 7.943 2.609 3.259 4.627 7.673 5.994 13.132l.207.814h-51.795c-.824 2.354-1.263 4.835-1.312 7.388h62.674c-.207-10.2-3.062-18.842-8.485-25.683z"/><path d="m405.108 398.283c-7.803-9.91-18.384-14.934-31.454-14.934-12.68 0-22.941 4.899-30.5 14.559-5.975 7.613-9.004 16.409-9.004 26.147 0 10.335 3.58 19.731 10.639 27.938 7.037 8.176 16.946 12.324 29.455 12.324 5.64 0 10.767-.867 15.236-2.575 4.445-1.704 8.516-4.238 12.099-7.538 3.452-3.172 6.549-7.365 9.215-12.467l-7.37-3.867c-2.969 4.873-5.786 8.484-8.373 10.733-2.705 2.346-6.01 4.238-9.822 5.635-3.831 1.407-7.82 2.117-11.855 2.117-8.407 0-15.566-3.004-21.289-8.924-3.855-3.99-6.487-8.852-7.82-14.441l-.111-.454c-.158-.695-.293-1.367-.407-2.058-.077-.424-.129-.855-.184-1.303l-.028-.188c-.064-.477-.128-.961-.171-1.46l-.084-1.337c-.036-.515-.072-1.024-.081-1.555l-.013-.668h.042c.026-2.47.313-4.947.848-7.388h-.048l.195-.841c.053-.185.115-.35.175-.515.051-.139.102-.273.145-.42.449-1.569.882-2.827 1.359-3.965 1.967-4.902 4.546-8.807 7.662-11.596 5.622-5.02 12.428-7.564 20.238-7.564 4.75 0 9.325 1.01 13.604 3.011 4.289 1.989 7.795 4.662 10.423 7.943 2.612 3.266 4.631 7.685 5.993 13.132l.207.814h-51.799c-.824 2.354-1.267 4.835-1.306 7.388h62.665c-.203-10.196-3.055-18.835-8.481-25.683z"/><path d="m600.676 398.283c-7.803-9.91-18.38-14.934-31.451-14.934-12.68 0-22.943 4.899-30.502 14.559-5.971 7.609-8.998 16.405-8.998 26.147 0 10.338 3.577 19.738 10.635 27.938 7.033 8.18 16.94 12.324 29.449 12.324 5.644 0 10.771-.867 15.243-2.575 4.444-1.708 8.514-4.246 12.096-7.538 3.453-3.168 6.547-7.365 9.208-12.467l-7.361-3.867c-2.97 4.873-5.783 8.484-8.375 10.733-2.707 2.346-6.013 4.238-9.823 5.635-3.834 1.407-7.823 2.117-11.854 2.117-8.403 0-15.569-3.004-21.293-8.924-3.854-3.99-6.483-8.852-7.817-14.441-.041-.146-.081-.331-.112-.496-.152-.653-.291-1.325-.404-2.016-.075-.428-.131-.855-.189-1.299l-.047-.346c-.055-.432-.108-.859-.146-1.306-.019-.215-.03-.433-.041-.65l-.055-.833c-.035-.462-.067-.92-.077-1.404l-.019-.672h.053c.03-2.485.315-4.963.854-7.388h-.051l.191-.845c.056-.181.116-.35.172-.515.051-.139.102-.277.146-.424.472-1.633.891-2.856 1.361-3.957 1.965-4.902 4.544-8.807 7.664-11.596 5.618-5.02 12.43-7.564 20.242-7.564 4.748 0 9.321 1.01 13.597 3.011 4.299 1.997 7.805 4.67 10.427 7.943 2.622 3.277 4.637 7.692 5.992 13.132l.204.814h-51.795c-.829 2.35-1.271 4.831-1.315 7.388h62.68c-.206-10.197-3.057-18.832-8.489-25.684z"/><path d="m665.826 454.238c-3.837 1.407-7.824 2.117-11.854 2.117-8.405 0-15.568-3.004-21.288-8.924-3.856-3.99-6.488-8.848-7.821-14.441-.041-.158-.084-.334-.116-.496-.154-.646-.287-1.325-.403-2.016-.073-.428-.134-.859-.187-1.303-.075-.529-.143-1.073-.196-1.641-.016-.199-.024-.391-.036-.578l-.057-.859c-.033-.48-.069-.957-.076-1.457l-.016-.672h.047c.03-2.481.315-4.963.854-7.388h-.051l.191-.841c.049-.177.112-.342.173-.503.051-.14.1-.278.143-.429.45-1.568.884-2.826 1.362-3.968 1.966-4.898 4.543-8.799 7.666-11.596 5.618-5.02 12.428-7.564 20.242-7.564 4.745 0 9.317 1.01 13.595 3.011 4.293 1.989 7.802 4.662 10.429 7.943 2.609 3.262 4.623 7.677 5.998 13.132l.202.814h-51.799c-.829 2.365-1.271 4.847-1.313 7.388h62.676c-.208-10.199-3.062-18.838-8.484-25.686-7.805-9.91-18.387-14.934-31.451-14.934-12.68 0-22.945 4.899-30.504 14.559-5.977 7.613-9.004 16.409-9.004 26.147 0 10.331 3.579 19.731 10.641 27.938 7.033 8.18 16.94 12.324 29.447 12.324 5.647 0 10.779-.867 15.249-2.575 4.442-1.708 8.512-4.246 12.092-7.538 3.45-3.165 6.547-7.357 9.212-12.467l-7.359-3.867c-2.976 4.877-5.797 8.488-8.379 10.733-2.706 2.348-6.011 4.241-9.825 5.637z"/></svg>